<mxfile host="app.diagrams.net" modified="2024-05-13T21:13:32.439Z" agent="Mozilla/5.0 (Windows NT 10.0; Win64; x64) AppleWebKit/537.36 (KHTML, like Gecko) Chrome/124.0.0.0 Safari/537.36" etag="xydCL9-ylVX75eOICywM" version="24.4.0" type="device">
  <diagram name="Page-1" id="SRP_aOKRxtV3sMP0yHyM">
    <mxGraphModel dx="1985" dy="2304" grid="1" gridSize="10" guides="1" tooltips="1" connect="1" arrows="1" fold="1" page="1" pageScale="1" pageWidth="827" pageHeight="1169" math="0" shadow="0">
      <root>
        <mxCell id="0" />
        <mxCell id="1" parent="0" />
        <mxCell id="vGM209uru72N1SCDVah4-1" value="Tour" style="swimlane;fontStyle=1;align=center;verticalAlign=top;childLayout=stackLayout;horizontal=1;startSize=26;horizontalStack=0;resizeParent=1;resizeParentMax=0;resizeLast=0;collapsible=1;marginBottom=0;whiteSpace=wrap;html=1;" parent="1" vertex="1">
          <mxGeometry x="1060" y="170" width="280" height="424" as="geometry" />
        </mxCell>
        <mxCell id="vGM209uru72N1SCDVah4-2" value="&lt;div&gt;+ Id: int&lt;/div&gt;&lt;div&gt;&lt;br&gt;&lt;/div&gt;" style="text;strokeColor=none;fillColor=none;align=left;verticalAlign=top;spacingLeft=4;spacingRight=4;overflow=hidden;rotatable=0;points=[[0,0.5],[1,0.5]];portConstraint=eastwest;whiteSpace=wrap;html=1;" parent="vGM209uru72N1SCDVah4-1" vertex="1">
          <mxGeometry y="26" width="280" height="26" as="geometry" />
        </mxCell>
        <mxCell id="vGM209uru72N1SCDVah4-3" value="+ OwnerId: int" style="text;strokeColor=none;fillColor=none;align=left;verticalAlign=top;spacingLeft=4;spacingRight=4;overflow=hidden;rotatable=0;points=[[0,0.5],[1,0.5]];portConstraint=eastwest;whiteSpace=wrap;html=1;" parent="vGM209uru72N1SCDVah4-1" vertex="1">
          <mxGeometry y="52" width="280" height="26" as="geometry" />
        </mxCell>
        <mxCell id="vGM209uru72N1SCDVah4-4" value="+ Name: string" style="text;strokeColor=none;fillColor=none;align=left;verticalAlign=top;spacingLeft=4;spacingRight=4;overflow=hidden;rotatable=0;points=[[0,0.5],[1,0.5]];portConstraint=eastwest;whiteSpace=wrap;html=1;" parent="vGM209uru72N1SCDVah4-1" vertex="1">
          <mxGeometry y="78" width="280" height="26" as="geometry" />
        </mxCell>
        <mxCell id="vGM209uru72N1SCDVah4-5" value="+ LocationId: int " style="text;strokeColor=none;fillColor=none;align=left;verticalAlign=top;spacingLeft=4;spacingRight=4;overflow=hidden;rotatable=0;points=[[0,0.5],[1,0.5]];portConstraint=eastwest;whiteSpace=wrap;html=1;" parent="vGM209uru72N1SCDVah4-1" vertex="1">
          <mxGeometry y="104" width="280" height="26" as="geometry" />
        </mxCell>
        <mxCell id="vGM209uru72N1SCDVah4-6" value="+ Location: Location" style="text;strokeColor=none;fillColor=none;align=left;verticalAlign=top;spacingLeft=4;spacingRight=4;overflow=hidden;rotatable=0;points=[[0,0.5],[1,0.5]];portConstraint=eastwest;whiteSpace=wrap;html=1;" parent="vGM209uru72N1SCDVah4-1" vertex="1">
          <mxGeometry y="130" width="280" height="26" as="geometry" />
        </mxCell>
        <mxCell id="vGM209uru72N1SCDVah4-7" value="+ Description: string" style="text;strokeColor=none;fillColor=none;align=left;verticalAlign=top;spacingLeft=4;spacingRight=4;overflow=hidden;rotatable=0;points=[[0,0.5],[1,0.5]];portConstraint=eastwest;whiteSpace=wrap;html=1;" parent="vGM209uru72N1SCDVah4-1" vertex="1">
          <mxGeometry y="156" width="280" height="26" as="geometry" />
        </mxCell>
        <mxCell id="vGM209uru72N1SCDVah4-8" value="+ LanguageId: int" style="text;strokeColor=none;fillColor=none;align=left;verticalAlign=top;spacingLeft=4;spacingRight=4;overflow=hidden;rotatable=0;points=[[0,0.5],[1,0.5]];portConstraint=eastwest;whiteSpace=wrap;html=1;" parent="vGM209uru72N1SCDVah4-1" vertex="1">
          <mxGeometry y="182" width="280" height="26" as="geometry" />
        </mxCell>
        <mxCell id="vGM209uru72N1SCDVah4-9" value="+ Language: Language" style="text;strokeColor=none;fillColor=none;align=left;verticalAlign=top;spacingLeft=4;spacingRight=4;overflow=hidden;rotatable=0;points=[[0,0.5],[1,0.5]];portConstraint=eastwest;whiteSpace=wrap;html=1;" parent="vGM209uru72N1SCDVah4-1" vertex="1">
          <mxGeometry y="208" width="280" height="26" as="geometry" />
        </mxCell>
        <mxCell id="vGM209uru72N1SCDVah4-10" value="+ Capacity: int" style="text;strokeColor=none;fillColor=none;align=left;verticalAlign=top;spacingLeft=4;spacingRight=4;overflow=hidden;rotatable=0;points=[[0,0.5],[1,0.5]];portConstraint=eastwest;whiteSpace=wrap;html=1;" parent="vGM209uru72N1SCDVah4-1" vertex="1">
          <mxGeometry y="234" width="280" height="26" as="geometry" />
        </mxCell>
        <mxCell id="vGM209uru72N1SCDVah4-11" value="&lt;div&gt;+ Checkpoints: List&amp;lt;Checkpoint&amp;gt;&lt;/div&gt;&lt;div&gt;&lt;br&gt;&lt;/div&gt;" style="text;strokeColor=none;fillColor=none;align=left;verticalAlign=top;spacingLeft=4;spacingRight=4;overflow=hidden;rotatable=0;points=[[0,0.5],[1,0.5]];portConstraint=eastwest;whiteSpace=wrap;html=1;" parent="vGM209uru72N1SCDVah4-1" vertex="1">
          <mxGeometry y="260" width="280" height="26" as="geometry" />
        </mxCell>
        <mxCell id="vGM209uru72N1SCDVah4-12" value="+ Dates: List&amp;lt;TourStartTime&amp;gt;" style="text;strokeColor=none;fillColor=none;align=left;verticalAlign=top;spacingLeft=4;spacingRight=4;overflow=hidden;rotatable=0;points=[[0,0.5],[1,0.5]];portConstraint=eastwest;whiteSpace=wrap;html=1;" parent="vGM209uru72N1SCDVah4-1" vertex="1">
          <mxGeometry y="286" width="280" height="26" as="geometry" />
        </mxCell>
        <mxCell id="vGM209uru72N1SCDVah4-13" value="+ Duration: int " style="text;strokeColor=none;fillColor=none;align=left;verticalAlign=top;spacingLeft=4;spacingRight=4;overflow=hidden;rotatable=0;points=[[0,0.5],[1,0.5]];portConstraint=eastwest;whiteSpace=wrap;html=1;" parent="vGM209uru72N1SCDVah4-1" vertex="1">
          <mxGeometry y="312" width="280" height="26" as="geometry" />
        </mxCell>
        <mxCell id="vGM209uru72N1SCDVah4-14" value="+ Images: ObservableCollection&amp;lt;TourImage&amp;gt;" style="text;strokeColor=none;fillColor=none;align=left;verticalAlign=top;spacingLeft=4;spacingRight=4;overflow=hidden;rotatable=0;points=[[0,0.5],[1,0.5]];portConstraint=eastwest;whiteSpace=wrap;html=1;" parent="vGM209uru72N1SCDVah4-1" vertex="1">
          <mxGeometry y="338" width="280" height="26" as="geometry" />
        </mxCell>
        <mxCell id="vGM209uru72N1SCDVah4-15" value="+ CurrentDate: DateTime" style="text;strokeColor=none;fillColor=none;align=left;verticalAlign=top;spacingLeft=4;spacingRight=4;overflow=hidden;rotatable=0;points=[[0,0.5],[1,0.5]];portConstraint=eastwest;whiteSpace=wrap;html=1;" parent="vGM209uru72N1SCDVah4-1" vertex="1">
          <mxGeometry y="364" width="280" height="26" as="geometry" />
        </mxCell>
        <mxCell id="vGM209uru72N1SCDVah4-16" value="+ Ongoing: bool" style="text;strokeColor=none;fillColor=none;align=left;verticalAlign=top;spacingLeft=4;spacingRight=4;overflow=hidden;rotatable=0;points=[[0,0.5],[1,0.5]];portConstraint=eastwest;whiteSpace=wrap;html=1;" parent="vGM209uru72N1SCDVah4-1" vertex="1">
          <mxGeometry y="390" width="280" height="26" as="geometry" />
        </mxCell>
        <mxCell id="vGM209uru72N1SCDVah4-17" value="" style="line;strokeWidth=1;fillColor=none;align=left;verticalAlign=middle;spacingTop=-1;spacingLeft=3;spacingRight=3;rotatable=0;labelPosition=right;points=[];portConstraint=eastwest;strokeColor=inherit;" parent="vGM209uru72N1SCDVah4-1" vertex="1">
          <mxGeometry y="416" width="280" height="8" as="geometry" />
        </mxCell>
        <mxCell id="vGM209uru72N1SCDVah4-24" value="TourImage" style="swimlane;fontStyle=1;align=center;verticalAlign=top;childLayout=stackLayout;horizontal=1;startSize=26;horizontalStack=0;resizeParent=1;resizeParentMax=0;resizeLast=0;collapsible=1;marginBottom=0;whiteSpace=wrap;html=1;" parent="1" vertex="1">
          <mxGeometry x="1570" y="170" width="160" height="112" as="geometry" />
        </mxCell>
        <mxCell id="vGM209uru72N1SCDVah4-25" value="+ Id: int" style="text;strokeColor=none;fillColor=none;align=left;verticalAlign=top;spacingLeft=4;spacingRight=4;overflow=hidden;rotatable=0;points=[[0,0.5],[1,0.5]];portConstraint=eastwest;whiteSpace=wrap;html=1;" parent="vGM209uru72N1SCDVah4-24" vertex="1">
          <mxGeometry y="26" width="160" height="26" as="geometry" />
        </mxCell>
        <mxCell id="vGM209uru72N1SCDVah4-26" value="+ TourId: int" style="text;strokeColor=none;fillColor=none;align=left;verticalAlign=top;spacingLeft=4;spacingRight=4;overflow=hidden;rotatable=0;points=[[0,0.5],[1,0.5]];portConstraint=eastwest;whiteSpace=wrap;html=1;" parent="vGM209uru72N1SCDVah4-24" vertex="1">
          <mxGeometry y="52" width="160" height="26" as="geometry" />
        </mxCell>
        <mxCell id="vGM209uru72N1SCDVah4-27" value="+ Path: string" style="text;strokeColor=none;fillColor=none;align=left;verticalAlign=top;spacingLeft=4;spacingRight=4;overflow=hidden;rotatable=0;points=[[0,0.5],[1,0.5]];portConstraint=eastwest;whiteSpace=wrap;html=1;" parent="vGM209uru72N1SCDVah4-24" vertex="1">
          <mxGeometry y="78" width="160" height="26" as="geometry" />
        </mxCell>
        <mxCell id="vGM209uru72N1SCDVah4-28" value="" style="line;strokeWidth=1;fillColor=none;align=left;verticalAlign=middle;spacingTop=-1;spacingLeft=3;spacingRight=3;rotatable=0;labelPosition=right;points=[];portConstraint=eastwest;strokeColor=inherit;" parent="vGM209uru72N1SCDVah4-24" vertex="1">
          <mxGeometry y="104" width="160" height="8" as="geometry" />
        </mxCell>
        <mxCell id="vGM209uru72N1SCDVah4-29" value="TourStartTime" style="swimlane;fontStyle=1;align=center;verticalAlign=top;childLayout=stackLayout;horizontal=1;startSize=26;horizontalStack=0;resizeParent=1;resizeParentMax=0;resizeLast=0;collapsible=1;marginBottom=0;whiteSpace=wrap;html=1;" parent="1" vertex="1">
          <mxGeometry x="1115" y="-250" width="160" height="216" as="geometry" />
        </mxCell>
        <mxCell id="vGM209uru72N1SCDVah4-30" value="+ Id: int" style="text;strokeColor=none;fillColor=none;align=left;verticalAlign=top;spacingLeft=4;spacingRight=4;overflow=hidden;rotatable=0;points=[[0,0.5],[1,0.5]];portConstraint=eastwest;whiteSpace=wrap;html=1;" parent="vGM209uru72N1SCDVah4-29" vertex="1">
          <mxGeometry y="26" width="160" height="26" as="geometry" />
        </mxCell>
        <mxCell id="vGM209uru72N1SCDVah4-31" value="+ TourId: int" style="text;strokeColor=none;fillColor=none;align=left;verticalAlign=top;spacingLeft=4;spacingRight=4;overflow=hidden;rotatable=0;points=[[0,0.5],[1,0.5]];portConstraint=eastwest;whiteSpace=wrap;html=1;" parent="vGM209uru72N1SCDVah4-29" vertex="1">
          <mxGeometry y="52" width="160" height="26" as="geometry" />
        </mxCell>
        <mxCell id="vGM209uru72N1SCDVah4-32" value="+ Time: DateTime" style="text;strokeColor=none;fillColor=none;align=left;verticalAlign=top;spacingLeft=4;spacingRight=4;overflow=hidden;rotatable=0;points=[[0,0.5],[1,0.5]];portConstraint=eastwest;whiteSpace=wrap;html=1;" parent="vGM209uru72N1SCDVah4-29" vertex="1">
          <mxGeometry y="78" width="160" height="26" as="geometry" />
        </mxCell>
        <mxCell id="vGM209uru72N1SCDVah4-33" value="+ Guests: int" style="text;strokeColor=none;fillColor=none;align=left;verticalAlign=top;spacingLeft=4;spacingRight=4;overflow=hidden;rotatable=0;points=[[0,0.5],[1,0.5]];portConstraint=eastwest;whiteSpace=wrap;html=1;" parent="vGM209uru72N1SCDVah4-29" vertex="1">
          <mxGeometry y="104" width="160" height="26" as="geometry" />
        </mxCell>
        <mxCell id="vGM209uru72N1SCDVah4-34" value="+ Status: string" style="text;strokeColor=none;fillColor=none;align=left;verticalAlign=top;spacingLeft=4;spacingRight=4;overflow=hidden;rotatable=0;points=[[0,0.5],[1,0.5]];portConstraint=eastwest;whiteSpace=wrap;html=1;" parent="vGM209uru72N1SCDVah4-29" vertex="1">
          <mxGeometry y="130" width="160" height="26" as="geometry" />
        </mxCell>
        <mxCell id="vGM209uru72N1SCDVah4-35" value="+ CurrentCheckpoint: int" style="text;strokeColor=none;fillColor=none;align=left;verticalAlign=top;spacingLeft=4;spacingRight=4;overflow=hidden;rotatable=0;points=[[0,0.5],[1,0.5]];portConstraint=eastwest;whiteSpace=wrap;html=1;" parent="vGM209uru72N1SCDVah4-29" vertex="1">
          <mxGeometry y="156" width="160" height="26" as="geometry" />
        </mxCell>
        <mxCell id="vGM209uru72N1SCDVah4-36" value="" style="line;strokeWidth=1;fillColor=none;align=left;verticalAlign=middle;spacingTop=-1;spacingLeft=3;spacingRight=3;rotatable=0;labelPosition=right;points=[];portConstraint=eastwest;strokeColor=inherit;" parent="vGM209uru72N1SCDVah4-29" vertex="1">
          <mxGeometry y="182" width="160" height="8" as="geometry" />
        </mxCell>
        <mxCell id="vGM209uru72N1SCDVah4-37" value="+ method(type): type" style="text;strokeColor=none;fillColor=none;align=left;verticalAlign=top;spacingLeft=4;spacingRight=4;overflow=hidden;rotatable=0;points=[[0,0.5],[1,0.5]];portConstraint=eastwest;whiteSpace=wrap;html=1;" parent="vGM209uru72N1SCDVah4-29" vertex="1">
          <mxGeometry y="190" width="160" height="26" as="geometry" />
        </mxCell>
        <mxCell id="vGM209uru72N1SCDVah4-38" value="TourRequest" style="swimlane;fontStyle=1;align=center;verticalAlign=top;childLayout=stackLayout;horizontal=1;startSize=26;horizontalStack=0;resizeParent=1;resizeParentMax=0;resizeLast=0;collapsible=1;marginBottom=0;whiteSpace=wrap;html=1;" parent="1" vertex="1">
          <mxGeometry x="2125" y="100" width="225" height="320" as="geometry" />
        </mxCell>
        <mxCell id="vGM209uru72N1SCDVah4-39" value="+ Id: int" style="text;strokeColor=none;fillColor=none;align=left;verticalAlign=top;spacingLeft=4;spacingRight=4;overflow=hidden;rotatable=0;points=[[0,0.5],[1,0.5]];portConstraint=eastwest;whiteSpace=wrap;html=1;" parent="vGM209uru72N1SCDVah4-38" vertex="1">
          <mxGeometry y="26" width="225" height="26" as="geometry" />
        </mxCell>
        <mxCell id="vGM209uru72N1SCDVah4-40" value="+ UserId: int" style="text;strokeColor=none;fillColor=none;align=left;verticalAlign=top;spacingLeft=4;spacingRight=4;overflow=hidden;rotatable=0;points=[[0,0.5],[1,0.5]];portConstraint=eastwest;whiteSpace=wrap;html=1;" parent="vGM209uru72N1SCDVah4-38" vertex="1">
          <mxGeometry y="52" width="225" height="26" as="geometry" />
        </mxCell>
        <mxCell id="vGM209uru72N1SCDVah4-41" value="+ Location: Location" style="text;strokeColor=none;fillColor=none;align=left;verticalAlign=top;spacingLeft=4;spacingRight=4;overflow=hidden;rotatable=0;points=[[0,0.5],[1,0.5]];portConstraint=eastwest;whiteSpace=wrap;html=1;" parent="vGM209uru72N1SCDVah4-38" vertex="1">
          <mxGeometry y="78" width="225" height="26" as="geometry" />
        </mxCell>
        <mxCell id="vGM209uru72N1SCDVah4-42" value="+ LocationId: int" style="text;strokeColor=none;fillColor=none;align=left;verticalAlign=top;spacingLeft=4;spacingRight=4;overflow=hidden;rotatable=0;points=[[0,0.5],[1,0.5]];portConstraint=eastwest;whiteSpace=wrap;html=1;" parent="vGM209uru72N1SCDVah4-38" vertex="1">
          <mxGeometry y="104" width="225" height="26" as="geometry" />
        </mxCell>
        <mxCell id="vGM209uru72N1SCDVah4-43" value="+ Description: string" style="text;strokeColor=none;fillColor=none;align=left;verticalAlign=top;spacingLeft=4;spacingRight=4;overflow=hidden;rotatable=0;points=[[0,0.5],[1,0.5]];portConstraint=eastwest;whiteSpace=wrap;html=1;" parent="vGM209uru72N1SCDVah4-38" vertex="1">
          <mxGeometry y="130" width="225" height="26" as="geometry" />
        </mxCell>
        <mxCell id="vGM209uru72N1SCDVah4-44" value="+ Language: Language" style="text;strokeColor=none;fillColor=none;align=left;verticalAlign=top;spacingLeft=4;spacingRight=4;overflow=hidden;rotatable=0;points=[[0,0.5],[1,0.5]];portConstraint=eastwest;whiteSpace=wrap;html=1;" parent="vGM209uru72N1SCDVah4-38" vertex="1">
          <mxGeometry y="156" width="225" height="26" as="geometry" />
        </mxCell>
        <mxCell id="vGM209uru72N1SCDVah4-45" value="+ LanguageId: int" style="text;strokeColor=none;fillColor=none;align=left;verticalAlign=top;spacingLeft=4;spacingRight=4;overflow=hidden;rotatable=0;points=[[0,0.5],[1,0.5]];portConstraint=eastwest;whiteSpace=wrap;html=1;" parent="vGM209uru72N1SCDVah4-38" vertex="1">
          <mxGeometry y="182" width="225" height="26" as="geometry" />
        </mxCell>
        <mxCell id="vGM209uru72N1SCDVah4-46" value="+ Tourists: List&amp;lt;RequestedTourist&amp;gt;" style="text;strokeColor=none;fillColor=none;align=left;verticalAlign=top;spacingLeft=4;spacingRight=4;overflow=hidden;rotatable=0;points=[[0,0.5],[1,0.5]];portConstraint=eastwest;whiteSpace=wrap;html=1;" parent="vGM209uru72N1SCDVah4-38" vertex="1">
          <mxGeometry y="208" width="225" height="26" as="geometry" />
        </mxCell>
        <mxCell id="vGM209uru72N1SCDVah4-47" value="+ BeginDate: DateTime" style="text;strokeColor=none;fillColor=none;align=left;verticalAlign=top;spacingLeft=4;spacingRight=4;overflow=hidden;rotatable=0;points=[[0,0.5],[1,0.5]];portConstraint=eastwest;whiteSpace=wrap;html=1;" parent="vGM209uru72N1SCDVah4-38" vertex="1">
          <mxGeometry y="234" width="225" height="26" as="geometry" />
        </mxCell>
        <mxCell id="vGM209uru72N1SCDVah4-48" value="+ EndDate: DateTime" style="text;strokeColor=none;fillColor=none;align=left;verticalAlign=top;spacingLeft=4;spacingRight=4;overflow=hidden;rotatable=0;points=[[0,0.5],[1,0.5]];portConstraint=eastwest;whiteSpace=wrap;html=1;" parent="vGM209uru72N1SCDVah4-38" vertex="1">
          <mxGeometry y="260" width="225" height="26" as="geometry" />
        </mxCell>
        <mxCell id="vGM209uru72N1SCDVah4-49" value="" style="line;strokeWidth=1;fillColor=none;align=left;verticalAlign=middle;spacingTop=-1;spacingLeft=3;spacingRight=3;rotatable=0;labelPosition=right;points=[];portConstraint=eastwest;strokeColor=inherit;" parent="vGM209uru72N1SCDVah4-38" vertex="1">
          <mxGeometry y="286" width="225" height="8" as="geometry" />
        </mxCell>
        <mxCell id="vGM209uru72N1SCDVah4-50" value="+ GetAll(): List&amp;lt;TourRequest&amp;gt;" style="text;strokeColor=none;fillColor=none;align=left;verticalAlign=top;spacingLeft=4;spacingRight=4;overflow=hidden;rotatable=0;points=[[0,0.5],[1,0.5]];portConstraint=eastwest;whiteSpace=wrap;html=1;" parent="vGM209uru72N1SCDVah4-38" vertex="1">
          <mxGeometry y="294" width="225" height="26" as="geometry" />
        </mxCell>
        <mxCell id="vGM209uru72N1SCDVah4-51" value="Language" style="swimlane;fontStyle=1;align=center;verticalAlign=top;childLayout=stackLayout;horizontal=1;startSize=26;horizontalStack=0;resizeParent=1;resizeParentMax=0;resizeLast=0;collapsible=1;marginBottom=0;whiteSpace=wrap;html=1;" parent="1" vertex="1">
          <mxGeometry x="1580" y="640" width="190" height="140" as="geometry" />
        </mxCell>
        <mxCell id="vGM209uru72N1SCDVah4-52" value="+ Id: int" style="text;strokeColor=none;fillColor=none;align=left;verticalAlign=top;spacingLeft=4;spacingRight=4;overflow=hidden;rotatable=0;points=[[0,0.5],[1,0.5]];portConstraint=eastwest;whiteSpace=wrap;html=1;" parent="vGM209uru72N1SCDVah4-51" vertex="1">
          <mxGeometry y="26" width="190" height="26" as="geometry" />
        </mxCell>
        <mxCell id="vGM209uru72N1SCDVah4-53" value="+ Name: string" style="text;strokeColor=none;fillColor=none;align=left;verticalAlign=top;spacingLeft=4;spacingRight=4;overflow=hidden;rotatable=0;points=[[0,0.5],[1,0.5]];portConstraint=eastwest;whiteSpace=wrap;html=1;" parent="vGM209uru72N1SCDVah4-51" vertex="1">
          <mxGeometry y="52" width="190" height="26" as="geometry" />
        </mxCell>
        <mxCell id="vGM209uru72N1SCDVah4-54" value="" style="line;strokeWidth=1;fillColor=none;align=left;verticalAlign=middle;spacingTop=-1;spacingLeft=3;spacingRight=3;rotatable=0;labelPosition=right;points=[];portConstraint=eastwest;strokeColor=inherit;" parent="vGM209uru72N1SCDVah4-51" vertex="1">
          <mxGeometry y="78" width="190" height="10" as="geometry" />
        </mxCell>
        <mxCell id="vGM209uru72N1SCDVah4-55" value="+ GetLanguages(): List&amp;lt;string&amp;gt;" style="text;strokeColor=none;fillColor=none;align=left;verticalAlign=top;spacingLeft=4;spacingRight=4;overflow=hidden;rotatable=0;points=[[0,0.5],[1,0.5]];portConstraint=eastwest;whiteSpace=wrap;html=1;" parent="vGM209uru72N1SCDVah4-51" vertex="1">
          <mxGeometry y="88" width="190" height="26" as="geometry" />
        </mxCell>
        <mxCell id="vGM209uru72N1SCDVah4-56" value="+ GetById(Id: int): Language" style="text;strokeColor=none;fillColor=none;align=left;verticalAlign=top;spacingLeft=4;spacingRight=4;overflow=hidden;rotatable=0;points=[[0,0.5],[1,0.5]];portConstraint=eastwest;whiteSpace=wrap;html=1;" parent="vGM209uru72N1SCDVah4-51" vertex="1">
          <mxGeometry y="114" width="190" height="26" as="geometry" />
        </mxCell>
        <mxCell id="vGM209uru72N1SCDVah4-57" value="Location" style="swimlane;fontStyle=1;align=center;verticalAlign=top;childLayout=stackLayout;horizontal=1;startSize=26;horizontalStack=0;resizeParent=1;resizeParentMax=0;resizeLast=0;collapsible=1;marginBottom=0;whiteSpace=wrap;html=1;" parent="1" vertex="1">
          <mxGeometry x="1570" y="340" width="320" height="190" as="geometry" />
        </mxCell>
        <mxCell id="vGM209uru72N1SCDVah4-58" value="+ Id: int" style="text;strokeColor=none;fillColor=none;align=left;verticalAlign=top;spacingLeft=4;spacingRight=4;overflow=hidden;rotatable=0;points=[[0,0.5],[1,0.5]];portConstraint=eastwest;whiteSpace=wrap;html=1;" parent="vGM209uru72N1SCDVah4-57" vertex="1">
          <mxGeometry y="26" width="320" height="26" as="geometry" />
        </mxCell>
        <mxCell id="vGM209uru72N1SCDVah4-59" value="+ City: string" style="text;strokeColor=none;fillColor=none;align=left;verticalAlign=top;spacingLeft=4;spacingRight=4;overflow=hidden;rotatable=0;points=[[0,0.5],[1,0.5]];portConstraint=eastwest;whiteSpace=wrap;html=1;" parent="vGM209uru72N1SCDVah4-57" vertex="1">
          <mxGeometry y="52" width="320" height="26" as="geometry" />
        </mxCell>
        <mxCell id="vGM209uru72N1SCDVah4-60" value="+ Country: string" style="text;strokeColor=none;fillColor=none;align=left;verticalAlign=top;spacingLeft=4;spacingRight=4;overflow=hidden;rotatable=0;points=[[0,0.5],[1,0.5]];portConstraint=eastwest;whiteSpace=wrap;html=1;" parent="vGM209uru72N1SCDVah4-57" vertex="1">
          <mxGeometry y="78" width="320" height="26" as="geometry" />
        </mxCell>
        <mxCell id="vGM209uru72N1SCDVah4-61" value="" style="line;strokeWidth=1;fillColor=none;align=left;verticalAlign=middle;spacingTop=-1;spacingLeft=3;spacingRight=3;rotatable=0;labelPosition=right;points=[];portConstraint=eastwest;strokeColor=inherit;" parent="vGM209uru72N1SCDVah4-57" vertex="1">
          <mxGeometry y="104" width="320" height="8" as="geometry" />
        </mxCell>
        <mxCell id="vGM209uru72N1SCDVah4-62" value="+ GetCountries(): List&amp;lt;string&amp;gt;" style="text;strokeColor=none;fillColor=none;align=left;verticalAlign=top;spacingLeft=4;spacingRight=4;overflow=hidden;rotatable=0;points=[[0,0.5],[1,0.5]];portConstraint=eastwest;whiteSpace=wrap;html=1;" parent="vGM209uru72N1SCDVah4-57" vertex="1">
          <mxGeometry y="112" width="320" height="26" as="geometry" />
        </mxCell>
        <mxCell id="vGM209uru72N1SCDVah4-63" value="+ GetCitiesByCountry(country: string): List&amp;lt;string&amp;gt;" style="text;strokeColor=none;fillColor=none;align=left;verticalAlign=top;spacingLeft=4;spacingRight=4;overflow=hidden;rotatable=0;points=[[0,0.5],[1,0.5]];portConstraint=eastwest;whiteSpace=wrap;html=1;" parent="vGM209uru72N1SCDVah4-57" vertex="1">
          <mxGeometry y="138" width="320" height="26" as="geometry" />
        </mxCell>
        <mxCell id="vGM209uru72N1SCDVah4-64" value="+ GetById(id: int): Location" style="text;strokeColor=none;fillColor=none;align=left;verticalAlign=top;spacingLeft=4;spacingRight=4;overflow=hidden;rotatable=0;points=[[0,0.5],[1,0.5]];portConstraint=eastwest;whiteSpace=wrap;html=1;" parent="vGM209uru72N1SCDVah4-57" vertex="1">
          <mxGeometry y="164" width="320" height="26" as="geometry" />
        </mxCell>
        <mxCell id="vGM209uru72N1SCDVah4-65" value="User" style="swimlane;fontStyle=1;align=center;verticalAlign=top;childLayout=stackLayout;horizontal=1;startSize=26;horizontalStack=0;resizeParent=1;resizeParentMax=0;resizeLast=0;collapsible=1;marginBottom=0;whiteSpace=wrap;html=1;" parent="1" vertex="1">
          <mxGeometry x="1115" y="760" width="160" height="166" as="geometry" />
        </mxCell>
        <mxCell id="vGM209uru72N1SCDVah4-66" value="+ Id: int" style="text;strokeColor=none;fillColor=none;align=left;verticalAlign=top;spacingLeft=4;spacingRight=4;overflow=hidden;rotatable=0;points=[[0,0.5],[1,0.5]];portConstraint=eastwest;whiteSpace=wrap;html=1;" parent="vGM209uru72N1SCDVah4-65" vertex="1">
          <mxGeometry y="26" width="160" height="26" as="geometry" />
        </mxCell>
        <mxCell id="vGM209uru72N1SCDVah4-67" value="+ Username: string" style="text;strokeColor=none;fillColor=none;align=left;verticalAlign=top;spacingLeft=4;spacingRight=4;overflow=hidden;rotatable=0;points=[[0,0.5],[1,0.5]];portConstraint=eastwest;whiteSpace=wrap;html=1;" parent="vGM209uru72N1SCDVah4-65" vertex="1">
          <mxGeometry y="52" width="160" height="26" as="geometry" />
        </mxCell>
        <mxCell id="vGM209uru72N1SCDVah4-68" value="+ Password: string" style="text;strokeColor=none;fillColor=none;align=left;verticalAlign=top;spacingLeft=4;spacingRight=4;overflow=hidden;rotatable=0;points=[[0,0.5],[1,0.5]];portConstraint=eastwest;whiteSpace=wrap;html=1;" parent="vGM209uru72N1SCDVah4-65" vertex="1">
          <mxGeometry y="78" width="160" height="26" as="geometry" />
        </mxCell>
        <mxCell id="vGM209uru72N1SCDVah4-69" value="+ Type: UserType" style="text;strokeColor=none;fillColor=none;align=left;verticalAlign=top;spacingLeft=4;spacingRight=4;overflow=hidden;rotatable=0;points=[[0,0.5],[1,0.5]];portConstraint=eastwest;whiteSpace=wrap;html=1;" parent="vGM209uru72N1SCDVah4-65" vertex="1">
          <mxGeometry y="104" width="160" height="26" as="geometry" />
        </mxCell>
        <mxCell id="vGM209uru72N1SCDVah4-70" value="&#xa;&#xa;&#xa;&#xa;" style="line;strokeWidth=1;fillColor=none;align=left;verticalAlign=middle;spacingTop=-1;spacingLeft=3;spacingRight=3;rotatable=0;labelPosition=right;points=[];portConstraint=eastwest;strokeColor=inherit;" parent="vGM209uru72N1SCDVah4-65" vertex="1">
          <mxGeometry y="130" width="160" height="10" as="geometry" />
        </mxCell>
        <mxCell id="vGM209uru72N1SCDVah4-71" value="+ GetById(UserId: int): User" style="text;strokeColor=none;fillColor=none;align=left;verticalAlign=top;spacingLeft=4;spacingRight=4;overflow=hidden;rotatable=0;points=[[0,0.5],[1,0.5]];portConstraint=eastwest;whiteSpace=wrap;html=1;" parent="vGM209uru72N1SCDVah4-65" vertex="1">
          <mxGeometry y="140" width="160" height="26" as="geometry" />
        </mxCell>
        <mxCell id="vGM209uru72N1SCDVah4-72" value="UserType&lt;br&gt;&amp;lt;&amp;lt;enum&amp;gt;&amp;gt;" style="swimlane;fontStyle=1;align=center;verticalAlign=middle;childLayout=stackLayout;horizontal=1;startSize=29;horizontalStack=0;resizeParent=1;resizeParentMax=0;resizeLast=0;collapsible=0;marginBottom=0;html=1;whiteSpace=wrap;" parent="1" vertex="1">
          <mxGeometry x="1125" y="1030" width="140" height="129" as="geometry" />
        </mxCell>
        <mxCell id="vGM209uru72N1SCDVah4-73" value="Owner" style="text;html=1;strokeColor=none;fillColor=none;align=center;verticalAlign=middle;spacingLeft=4;spacingRight=4;overflow=hidden;rotatable=0;points=[[0,0.5],[1,0.5]];portConstraint=eastwest;whiteSpace=wrap;" parent="vGM209uru72N1SCDVah4-72" vertex="1">
          <mxGeometry y="29" width="140" height="25" as="geometry" />
        </mxCell>
        <mxCell id="vGM209uru72N1SCDVah4-74" value="Guest" style="text;html=1;strokeColor=none;fillColor=none;align=center;verticalAlign=middle;spacingLeft=4;spacingRight=4;overflow=hidden;rotatable=0;points=[[0,0.5],[1,0.5]];portConstraint=eastwest;whiteSpace=wrap;" parent="vGM209uru72N1SCDVah4-72" vertex="1">
          <mxGeometry y="54" width="140" height="25" as="geometry" />
        </mxCell>
        <mxCell id="vGM209uru72N1SCDVah4-75" value="Tourist" style="text;html=1;strokeColor=none;fillColor=none;align=center;verticalAlign=middle;spacingLeft=4;spacingRight=4;overflow=hidden;rotatable=0;points=[[0,0.5],[1,0.5]];portConstraint=eastwest;whiteSpace=wrap;" parent="vGM209uru72N1SCDVah4-72" vertex="1">
          <mxGeometry y="79" width="140" height="25" as="geometry" />
        </mxCell>
        <mxCell id="vGM209uru72N1SCDVah4-76" value="Pathfinder" style="text;html=1;strokeColor=none;fillColor=none;align=center;verticalAlign=middle;spacingLeft=4;spacingRight=4;overflow=hidden;rotatable=0;points=[[0,0.5],[1,0.5]];portConstraint=eastwest;whiteSpace=wrap;" parent="vGM209uru72N1SCDVah4-72" vertex="1">
          <mxGeometry y="104" width="140" height="25" as="geometry" />
        </mxCell>
        <mxCell id="vGM209uru72N1SCDVah4-77" value="Checkpoint" style="swimlane;fontStyle=1;align=center;verticalAlign=top;childLayout=stackLayout;horizontal=1;startSize=26;horizontalStack=0;resizeParent=1;resizeParentMax=0;resizeLast=0;collapsible=1;marginBottom=0;whiteSpace=wrap;html=1;" parent="1" vertex="1">
          <mxGeometry x="620" y="270" width="160" height="138" as="geometry" />
        </mxCell>
        <mxCell id="vGM209uru72N1SCDVah4-78" value="+ Id: int" style="text;strokeColor=none;fillColor=none;align=left;verticalAlign=top;spacingLeft=4;spacingRight=4;overflow=hidden;rotatable=0;points=[[0,0.5],[1,0.5]];portConstraint=eastwest;whiteSpace=wrap;html=1;" parent="vGM209uru72N1SCDVah4-77" vertex="1">
          <mxGeometry y="26" width="160" height="26" as="geometry" />
        </mxCell>
        <mxCell id="vGM209uru72N1SCDVah4-79" value="+ TourId: int" style="text;strokeColor=none;fillColor=none;align=left;verticalAlign=top;spacingLeft=4;spacingRight=4;overflow=hidden;rotatable=0;points=[[0,0.5],[1,0.5]];portConstraint=eastwest;whiteSpace=wrap;html=1;" parent="vGM209uru72N1SCDVah4-77" vertex="1">
          <mxGeometry y="52" width="160" height="26" as="geometry" />
        </mxCell>
        <mxCell id="vGM209uru72N1SCDVah4-80" value="+ Name: string" style="text;strokeColor=none;fillColor=none;align=left;verticalAlign=top;spacingLeft=4;spacingRight=4;overflow=hidden;rotatable=0;points=[[0,0.5],[1,0.5]];portConstraint=eastwest;whiteSpace=wrap;html=1;" parent="vGM209uru72N1SCDVah4-77" vertex="1">
          <mxGeometry y="78" width="160" height="26" as="geometry" />
        </mxCell>
        <mxCell id="vGM209uru72N1SCDVah4-81" value="+ Checked: bool" style="text;strokeColor=none;fillColor=none;align=left;verticalAlign=top;spacingLeft=4;spacingRight=4;overflow=hidden;rotatable=0;points=[[0,0.5],[1,0.5]];portConstraint=eastwest;whiteSpace=wrap;html=1;" parent="vGM209uru72N1SCDVah4-77" vertex="1">
          <mxGeometry y="104" width="160" height="26" as="geometry" />
        </mxCell>
        <mxCell id="vGM209uru72N1SCDVah4-82" value="" style="line;strokeWidth=1;fillColor=none;align=left;verticalAlign=middle;spacingTop=-1;spacingLeft=3;spacingRight=3;rotatable=0;labelPosition=right;points=[];portConstraint=eastwest;strokeColor=inherit;" parent="vGM209uru72N1SCDVah4-77" vertex="1">
          <mxGeometry y="130" width="160" height="8" as="geometry" />
        </mxCell>
        <mxCell id="vGM209uru72N1SCDVah4-84" value="0..N" style="text;html=1;align=center;verticalAlign=middle;resizable=0;points=[];autosize=1;strokeColor=none;fillColor=none;" parent="1" vertex="1">
          <mxGeometry x="1175" y="-34" width="50" height="30" as="geometry" />
        </mxCell>
        <mxCell id="vGM209uru72N1SCDVah4-85" value="1..1" style="text;html=1;align=center;verticalAlign=middle;resizable=0;points=[];autosize=1;strokeColor=none;fillColor=none;" parent="1" vertex="1">
          <mxGeometry x="1180" y="140" width="40" height="30" as="geometry" />
        </mxCell>
        <mxCell id="vGM209uru72N1SCDVah4-87" value="1..N" style="text;html=1;align=center;verticalAlign=middle;resizable=0;points=[];autosize=1;strokeColor=none;fillColor=none;" parent="1" vertex="1">
          <mxGeometry x="1335" y="178" width="50" height="30" as="geometry" />
        </mxCell>
        <mxCell id="vGM209uru72N1SCDVah4-88" value="0..N" style="text;html=1;align=center;verticalAlign=middle;resizable=0;points=[];autosize=1;strokeColor=none;fillColor=none;" parent="1" vertex="1">
          <mxGeometry x="1530" y="178" width="50" height="30" as="geometry" />
        </mxCell>
        <mxCell id="vGM209uru72N1SCDVah4-90" value="&amp;nbsp;&amp;nbsp;&amp;nbsp; 0..N" style="text;html=1;align=center;verticalAlign=middle;resizable=0;points=[];autosize=1;strokeColor=none;fillColor=none;" parent="1" vertex="1">
          <mxGeometry x="1320" y="368" width="60" height="30" as="geometry" />
        </mxCell>
        <mxCell id="vGM209uru72N1SCDVah4-91" value="&amp;nbsp;&amp;nbsp;&amp;nbsp; 1..1" style="text;html=1;align=center;verticalAlign=middle;resizable=0;points=[];autosize=1;strokeColor=none;fillColor=none;" parent="1" vertex="1">
          <mxGeometry x="1510" y="368" width="60" height="30" as="geometry" />
        </mxCell>
        <mxCell id="vGM209uru72N1SCDVah4-93" value="0..N" style="text;html=1;align=center;verticalAlign=middle;resizable=0;points=[];autosize=1;strokeColor=none;fillColor=none;" parent="1" vertex="1">
          <mxGeometry x="1335" y="528" width="50" height="30" as="geometry" />
        </mxCell>
        <mxCell id="vGM209uru72N1SCDVah4-94" value="1..1" style="text;html=1;align=center;verticalAlign=middle;resizable=0;points=[];autosize=1;strokeColor=none;fillColor=none;" parent="1" vertex="1">
          <mxGeometry x="1560" y="598" width="40" height="30" as="geometry" />
        </mxCell>
        <mxCell id="vGM209uru72N1SCDVah4-96" value="1..1" style="text;html=1;align=center;verticalAlign=middle;resizable=0;points=[];autosize=1;strokeColor=none;fillColor=none;" parent="1" vertex="1">
          <mxGeometry x="1015" y="325" width="40" height="30" as="geometry" />
        </mxCell>
        <mxCell id="vGM209uru72N1SCDVah4-97" value="M..N" style="text;html=1;align=center;verticalAlign=middle;resizable=0;points=[];autosize=1;strokeColor=none;fillColor=none;" parent="1" vertex="1">
          <mxGeometry x="780" y="320" width="50" height="30" as="geometry" />
        </mxCell>
        <mxCell id="vGM209uru72N1SCDVah4-99" value="0..N" style="text;html=1;align=center;verticalAlign=middle;resizable=0;points=[];autosize=1;strokeColor=none;fillColor=none;" parent="1" vertex="1">
          <mxGeometry x="1200" y="926" width="50" height="30" as="geometry" />
        </mxCell>
        <mxCell id="vGM209uru72N1SCDVah4-100" value="1..1" style="text;html=1;align=center;verticalAlign=middle;resizable=0;points=[];autosize=1;strokeColor=none;fillColor=none;" parent="1" vertex="1">
          <mxGeometry x="1205" y="1000" width="40" height="30" as="geometry" />
        </mxCell>
        <mxCell id="vGM209uru72N1SCDVah4-102" value="1..1" style="text;html=1;align=center;verticalAlign=middle;resizable=0;points=[];autosize=1;strokeColor=none;fillColor=none;" parent="1" vertex="1">
          <mxGeometry x="1190" y="720" width="40" height="30" as="geometry" />
        </mxCell>
        <mxCell id="vGM209uru72N1SCDVah4-103" value="0..N" style="text;html=1;align=center;verticalAlign=middle;resizable=0;points=[];autosize=1;strokeColor=none;fillColor=none;" parent="1" vertex="1">
          <mxGeometry x="1185" y="598" width="50" height="30" as="geometry" />
        </mxCell>
        <mxCell id="vGM209uru72N1SCDVah4-108" value="1..1" style="text;html=1;align=center;verticalAlign=middle;resizable=0;points=[];autosize=1;strokeColor=none;fillColor=none;" parent="1" vertex="1">
          <mxGeometry x="1900" y="295" width="40" height="30" as="geometry" />
        </mxCell>
        <mxCell id="vGM209uru72N1SCDVah4-109" value="0..N" style="text;html=1;align=center;verticalAlign=middle;resizable=0;points=[];autosize=1;strokeColor=none;fillColor=none;" parent="1" vertex="1">
          <mxGeometry x="2055" y="268" width="50" height="30" as="geometry" />
        </mxCell>
        <mxCell id="vGM209uru72N1SCDVah4-111" value="0..N" style="text;html=1;align=center;verticalAlign=middle;resizable=0;points=[];autosize=1;strokeColor=none;fillColor=none;" parent="1" vertex="1">
          <mxGeometry x="2055" y="368" width="50" height="30" as="geometry" />
        </mxCell>
        <mxCell id="vGM209uru72N1SCDVah4-112" value="1..1" style="text;html=1;align=center;verticalAlign=middle;resizable=0;points=[];autosize=1;strokeColor=none;fillColor=none;" parent="1" vertex="1">
          <mxGeometry x="1780" y="578" width="40" height="30" as="geometry" />
        </mxCell>
        <mxCell id="vGM209uru72N1SCDVah4-113" value="" style="endArrow=none;html=1;rounded=0;entryX=0.75;entryY=0;entryDx=0;entryDy=0;" parent="1" target="vGM209uru72N1SCDVah4-38" edge="1">
          <mxGeometry width="50" height="50" relative="1" as="geometry">
            <mxPoint x="1310" y="170" as="sourcePoint" />
            <mxPoint x="2260" y="-50" as="targetPoint" />
            <Array as="points">
              <mxPoint x="1410" y="-50" />
              <mxPoint x="2270" y="-60" />
            </Array>
          </mxGeometry>
        </mxCell>
        <mxCell id="vGM209uru72N1SCDVah4-114" value="0..1" style="text;html=1;align=center;verticalAlign=middle;whiteSpace=wrap;rounded=0;" parent="1" vertex="1">
          <mxGeometry x="2200" y="70" width="60" height="30" as="geometry" />
        </mxCell>
        <mxCell id="vGM209uru72N1SCDVah4-115" value="0..1" style="text;html=1;align=center;verticalAlign=middle;resizable=0;points=[];autosize=1;strokeColor=none;fillColor=none;" parent="1" vertex="1">
          <mxGeometry x="1320" y="128" width="40" height="30" as="geometry" />
        </mxCell>
        <mxCell id="vGM209uru72N1SCDVah4-117" value="&lt;b&gt;RequestedTourist&lt;/b&gt;" style="swimlane;fontStyle=0;childLayout=stackLayout;horizontal=1;startSize=30;horizontalStack=0;resizeParent=1;resizeParentMax=0;resizeLast=0;collapsible=1;marginBottom=0;whiteSpace=wrap;html=1;" parent="1" vertex="1">
          <mxGeometry x="1790" y="100" width="180" height="150" as="geometry" />
        </mxCell>
        <mxCell id="vGM209uru72N1SCDVah4-118" value="+ Id: int" style="text;strokeColor=none;fillColor=none;align=left;verticalAlign=middle;spacingLeft=4;spacingRight=4;overflow=hidden;points=[[0,0.5],[1,0.5]];portConstraint=eastwest;rotatable=0;whiteSpace=wrap;html=1;" parent="vGM209uru72N1SCDVah4-117" vertex="1">
          <mxGeometry y="30" width="180" height="30" as="geometry" />
        </mxCell>
        <mxCell id="vGM209uru72N1SCDVah4-119" value="+ RequestId: int" style="text;strokeColor=none;fillColor=none;align=left;verticalAlign=middle;spacingLeft=4;spacingRight=4;overflow=hidden;points=[[0,0.5],[1,0.5]];portConstraint=eastwest;rotatable=0;whiteSpace=wrap;html=1;" parent="vGM209uru72N1SCDVah4-117" vertex="1">
          <mxGeometry y="60" width="180" height="30" as="geometry" />
        </mxCell>
        <mxCell id="vGM209uru72N1SCDVah4-120" value="+ Name: string" style="text;strokeColor=none;fillColor=none;align=left;verticalAlign=middle;spacingLeft=4;spacingRight=4;overflow=hidden;points=[[0,0.5],[1,0.5]];portConstraint=eastwest;rotatable=0;whiteSpace=wrap;html=1;" parent="vGM209uru72N1SCDVah4-117" vertex="1">
          <mxGeometry y="90" width="180" height="20" as="geometry" />
        </mxCell>
        <mxCell id="S9Vjt90pdsBWGZqIffs9-116" value="+ Surname: string" style="text;strokeColor=none;fillColor=none;align=left;verticalAlign=middle;spacingLeft=4;spacingRight=4;overflow=hidden;points=[[0,0.5],[1,0.5]];portConstraint=eastwest;rotatable=0;whiteSpace=wrap;html=1;" vertex="1" parent="vGM209uru72N1SCDVah4-117">
          <mxGeometry y="110" width="180" height="20" as="geometry" />
        </mxCell>
        <mxCell id="S9Vjt90pdsBWGZqIffs9-118" value="+ Age: int" style="text;strokeColor=none;fillColor=none;align=left;verticalAlign=middle;spacingLeft=4;spacingRight=4;overflow=hidden;points=[[0,0.5],[1,0.5]];portConstraint=eastwest;rotatable=0;whiteSpace=wrap;html=1;" vertex="1" parent="vGM209uru72N1SCDVah4-117">
          <mxGeometry y="130" width="180" height="20" as="geometry" />
        </mxCell>
        <mxCell id="S9Vjt90pdsBWGZqIffs9-122" value="1..1" style="text;html=1;align=center;verticalAlign=middle;whiteSpace=wrap;rounded=0;" vertex="1" parent="1">
          <mxGeometry x="2068" y="90" width="60" height="30" as="geometry" />
        </mxCell>
        <mxCell id="S9Vjt90pdsBWGZqIffs9-123" value="1..N" style="text;html=1;align=center;verticalAlign=middle;whiteSpace=wrap;rounded=0;" vertex="1" parent="1">
          <mxGeometry x="1970" y="90" width="60" height="30" as="geometry" />
        </mxCell>
        <mxCell id="S9Vjt90pdsBWGZqIffs9-124" value="" style="endArrow=classic;html=1;rounded=0;exitX=1;exitY=0.5;exitDx=0;exitDy=0;entryX=0.002;entryY=0.91;entryDx=0;entryDy=0;entryPerimeter=0;" edge="1" parent="1">
          <mxGeometry width="50" height="50" relative="1" as="geometry">
            <mxPoint x="1340" y="399.34" as="sourcePoint" />
            <mxPoint x="1570.6399999999999" y="398.00000000000006" as="targetPoint" />
          </mxGeometry>
        </mxCell>
        <mxCell id="S9Vjt90pdsBWGZqIffs9-125" value="" style="endArrow=classic;html=1;rounded=0;exitX=0.995;exitY=1.013;exitDx=0;exitDy=0;exitPerimeter=0;entryX=-0.012;entryY=-0.064;entryDx=0;entryDy=0;entryPerimeter=0;" edge="1" parent="1">
          <mxGeometry width="50" height="50" relative="1" as="geometry">
            <mxPoint x="1340" y="207.99799999999996" as="sourcePoint" />
            <mxPoint x="1569.48" y="205.996" as="targetPoint" />
          </mxGeometry>
        </mxCell>
        <mxCell id="S9Vjt90pdsBWGZqIffs9-126" value="" style="endArrow=classic;html=1;rounded=0;exitX=1;exitY=0;exitDx=0;exitDy=0;exitPerimeter=0;entryX=0;entryY=0;entryDx=0;entryDy=0;" edge="1" parent="1" source="vGM209uru72N1SCDVah4-16" target="vGM209uru72N1SCDVah4-51">
          <mxGeometry width="50" height="50" relative="1" as="geometry">
            <mxPoint x="1400" y="590" as="sourcePoint" />
            <mxPoint x="1450" y="540" as="targetPoint" />
          </mxGeometry>
        </mxCell>
        <mxCell id="S9Vjt90pdsBWGZqIffs9-127" value="" style="endArrow=classic;html=1;rounded=0;exitX=0.424;exitY=1.042;exitDx=0;exitDy=0;exitPerimeter=0;entryX=0.469;entryY=0;entryDx=0;entryDy=0;entryPerimeter=0;" edge="1" parent="1" source="vGM209uru72N1SCDVah4-17" target="vGM209uru72N1SCDVah4-65">
          <mxGeometry width="50" height="50" relative="1" as="geometry">
            <mxPoint x="1210" y="740" as="sourcePoint" />
            <mxPoint x="1183" y="760" as="targetPoint" />
          </mxGeometry>
        </mxCell>
        <mxCell id="S9Vjt90pdsBWGZqIffs9-128" value="" style="endArrow=classic;html=1;rounded=0;exitX=0.402;exitY=0.987;exitDx=0;exitDy=0;exitPerimeter=0;entryX=0.421;entryY=-0.003;entryDx=0;entryDy=0;entryPerimeter=0;" edge="1" parent="1" source="vGM209uru72N1SCDVah4-71" target="vGM209uru72N1SCDVah4-72">
          <mxGeometry width="50" height="50" relative="1" as="geometry">
            <mxPoint x="1210" y="970" as="sourcePoint" />
            <mxPoint x="1260" y="920" as="targetPoint" />
          </mxGeometry>
        </mxCell>
        <mxCell id="S9Vjt90pdsBWGZqIffs9-129" value="" style="endArrow=classic;html=1;rounded=0;exitX=0.022;exitY=1.154;exitDx=0;exitDy=0;exitPerimeter=0;entryX=0.996;entryY=0.083;entryDx=0;entryDy=0;entryPerimeter=0;" edge="1" parent="1" source="vGM209uru72N1SCDVah4-48" target="vGM209uru72N1SCDVah4-51">
          <mxGeometry width="50" height="50" relative="1" as="geometry">
            <mxPoint x="1820" y="550" as="sourcePoint" />
            <mxPoint x="1870" y="500" as="targetPoint" />
            <Array as="points">
              <mxPoint x="2050" y="390" />
              <mxPoint x="1920" y="650" />
            </Array>
          </mxGeometry>
        </mxCell>
        <mxCell id="S9Vjt90pdsBWGZqIffs9-130" value="" style="endArrow=classic;html=1;rounded=0;exitX=-0.013;exitY=0.859;exitDx=0;exitDy=0;exitPerimeter=0;entryX=1;entryY=0.068;entryDx=0;entryDy=0;entryPerimeter=0;" edge="1" parent="1" source="vGM209uru72N1SCDVah4-45" target="vGM209uru72N1SCDVah4-57">
          <mxGeometry width="50" height="50" relative="1" as="geometry">
            <mxPoint x="1940" y="360" as="sourcePoint" />
            <mxPoint x="1990" y="310" as="targetPoint" />
            <Array as="points">
              <mxPoint x="2010" y="304" />
            </Array>
          </mxGeometry>
        </mxCell>
        <mxCell id="S9Vjt90pdsBWGZqIffs9-131" value="" style="endArrow=classic;html=1;rounded=0;exitX=-0.01;exitY=0.115;exitDx=0;exitDy=0;exitPerimeter=0;entryX=1.007;entryY=-0.1;entryDx=0;entryDy=0;entryPerimeter=0;" edge="1" parent="1" source="vGM209uru72N1SCDVah4-39" target="vGM209uru72N1SCDVah4-118">
          <mxGeometry width="50" height="50" relative="1" as="geometry">
            <mxPoint x="1980" y="230" as="sourcePoint" />
            <mxPoint x="2030" y="180" as="targetPoint" />
          </mxGeometry>
        </mxCell>
        <mxCell id="S9Vjt90pdsBWGZqIffs9-132" value="" style="endArrow=classic;html=1;rounded=0;exitX=0.427;exitY=0.002;exitDx=0;exitDy=0;exitPerimeter=0;entryX=0.395;entryY=1.02;entryDx=0;entryDy=0;entryPerimeter=0;" edge="1" parent="1" source="vGM209uru72N1SCDVah4-1" target="vGM209uru72N1SCDVah4-37">
          <mxGeometry width="50" height="50" relative="1" as="geometry">
            <mxPoint x="1270" y="120" as="sourcePoint" />
            <mxPoint x="1180" y="-30" as="targetPoint" />
          </mxGeometry>
        </mxCell>
        <mxCell id="S9Vjt90pdsBWGZqIffs9-133" value="" style="endArrow=classic;html=1;rounded=0;exitX=-0.001;exitY=0.94;exitDx=0;exitDy=0;exitPerimeter=0;entryX=1.018;entryY=-0.087;entryDx=0;entryDy=0;entryPerimeter=0;" edge="1" parent="1" source="vGM209uru72N1SCDVah4-6" target="vGM209uru72N1SCDVah4-79">
          <mxGeometry width="50" height="50" relative="1" as="geometry">
            <mxPoint x="940" y="330" as="sourcePoint" />
            <mxPoint x="990" y="280" as="targetPoint" />
          </mxGeometry>
        </mxCell>
      </root>
    </mxGraphModel>
  </diagram>
</mxfile>
